# xmcd
#
# Track frame offsets: 
#        150
#        13080
#        25332
#        38997
#        52227
#        64970
#        76425
#        87840
#        102487
#        115260
#        131667
#        144230
#        170285
#        183317
#        197135
#
# Disc length: 2807 seconds
#
# Revision: 0
# Processed by: cddbd v1.4PL0 Copyright (c) Steve Scherf et al.
# Submitted via: ExactAudioCopy v0.90b4
#
DISCID=d30af50f
DTITLE=Otis Clay - The Hi Records Masters
DYEAR=1998
DGENRE=Soul
TTITLE0=Trying to Live My Life Without You
TTITLE1=I Die a Little Each Day
TTITLE2=Holding on to a Dying Love
TTITLE3=I Can't Make It Alone
TTITLE4=You Can't Keep Running from My Love
TTITLE5=Let Me Be the One
TTITLE6=Brand New Thing
TTITLE7=Precious, Precious
TTITLE8=I Didn't Know the Meaning of Pain
TTITLE9=That's How It Is (When You're in Love)
TTITLE10=Too Many Hands
TTITLE11=I Love You, I Need You
TTITLE12=Home Is Where the Heart Is
TTITLE13=It Was Jealousy
TTITLE14=You Did Something to Me
EXTD=
EXTT0=
EXTT1=
EXTT2=
EXTT3=
EXTT4=
EXTT5=
EXTT6=
EXTT7=
EXTT8=
EXTT9=
EXTT10=
EXTT11=
EXTT12=
EXTT13=
EXTT14=
PLAYORDER=
